# xmcd CD database file
#
# Track frame offsets:
#	150
#	14414
#	27304
#	44911
#	64382
#	78908
#	94105
#	108114
#	120089
#	137104
#	155364
#	170212
#	184972
#	200909
#	219014
#	234517
#	251414
#	267976
#	284041
#
# Disc length: 4010 seconds
#
# Revision: 0
# Processed by: cddbd v1.5.2PL0 Copyright (c) Steve Scherf et al.
# Submitted via: CDex 1.79
#
DISCID=170fa813
DTITLE=Luke Bryan - Crash My Party
DYEAR=2013
DGENRE=Country
TTITLE0=That`s My Kind Of Night
TTITLE1=Beer In The Headlights
TTITLE2=Crash My Party
TTITLE3=Roller Coaster
TTITLE4=We Run This Town
TTITLE5=Drink A Beer
TTITLE6=I See You
TTITLE7=Goodbye Girl
TTITLE8=Play It Again
TTITLE9=Blood Brothers
TTITLE10=Out Like That
TTITLE11=Shut It Down
TTITLE12=Dirt Road Diary
TTITLE13=What Is It With You
TTITLE14=Sunburnt Lips
TTITLE15=Better Than My Heart
TTITLE16=Your Mama Should`ve Named You Whiskey
TTITLE17=She Get Me High
TTITLE18=Good Lookin` Girl
EXTD=YEAR: 2013
EXTT0=
EXTT1=
EXTT2=
EXTT3=
EXTT4=
EXTT5=
EXTT6=
EXTT7=
EXTT8=
EXTT9=
EXTT10=
EXTT11=
EXTT12=
EXTT13=
EXTT14=
EXTT15=
EXTT16=
EXTT17=
EXTT18=
PLAYORDER=
